<svg width="375" height="347" viewBox="0 0 375 347" fill="none" xmlns="http://www.w3.org/2000/svg">
<g clip-path="url(#clip0_294_2)">
<path d="M102.8 172C102 185.9 112.7 197.8 126.6 198.6C127.1 198.6 127.6 198.6 128.1 198.6C142.1 198.6 153.4 187.3 153.3 173.3C153.3 159.3 142 148 128 148.1C114.6 148.1 103.5 158.6 102.8 172Z" fill="white"/>
<path d="M8.5996 165.5C4.0996 165.2 0.199599 168.7 -0.000401354 173.2C-0.200401 177.7 3.1996 181.6 7.6996 181.8C12.1996 182.1 15.9996 178.6 16.2996 174.1C16.5996 169.6 13.0996 165.8 8.5996 165.5Z" fill="white"/>
<path d="M101.2 25.4005C105.2 23.4005 106.8 18.4005 104.8 14.4005C102.8 10.4005 97.7999 8.80048 93.7999 10.8005C89.7999 12.8005 88.1999 17.7005 90.1999 21.7005C92.1999 25.8005 97.0999 27.5005 101.2 25.4005Z" fill="white"/>
<path d="M126.8 70.1C133 67 135.5 59.4 132.4 53.2C129.3 47 121.7 44.5 115.5 47.6C109.3 50.7 106.8 58.3 109.9 64.5C113 70.7 120.6 73.2 126.8 70.1Z" fill="white"/>
<path d="M40.5998 100.8C45.3998 103.9 51.7998 102.6 54.9998 97.8004C58.0998 93.0004 56.7998 86.6004 51.9998 83.4004C47.1998 80.3004 40.7998 81.6004 37.5998 86.4004C34.3998 91.2004 35.7998 97.7004 40.5998 100.8Z" fill="white"/>
<path d="M55.8994 161C48.8994 160.6 42.9994 165.9 42.5994 172.9C42.1994 179.9 47.4994 185.8 54.4994 186.2C61.4994 186.6 67.3994 181.3 67.7994 174.3C68.1994 167.4 62.8994 161.4 55.8994 161Z" fill="white"/>
<path d="M41.9999 245.7C36.8999 248.3 34.7999 254.5 37.3999 259.7C39.9999 264.8 46.1999 266.9 51.3999 264.3C56.4999 261.7 58.5999 255.5 55.9999 250.3C53.3999 245.2 47.0999 243.1 41.9999 245.7Z" fill="white"/>
<path d="M90.9994 134.9C97.8994 139.4 107.099 137.5 111.499 130.6C115.999 123.7 114.099 114.5 107.199 110.1C100.299 105.6 91.0994 107.5 86.6994 114.4C82.1994 121.2 84.0994 130.4 90.9994 134.9Z" fill="white"/>
<path d="M246.499 69.1006C252.299 72.9006 260.199 71.3006 263.999 65.5006C267.799 59.7006 266.199 51.8006 260.399 48.0006C254.599 44.2006 246.699 45.8006 242.899 51.6006C238.999 57.5006 240.599 65.3006 246.499 69.1006Z" fill="white"/>
<path d="M272.299 24.6C276.099 27.1 281.099 26 283.599 22.2C286.099 18.4 284.999 13.4 281.199 10.9C277.399 8.40004 272.399 9.50004 269.899 13.2C267.499 17 268.599 22.1 272.299 24.6Z" fill="white"/>
<path d="M248.4 147.9C234.5 147.1 222.5 157.8 221.8 171.7C221 185.6 231.7 197.601 245.6 198.301C246.1 198.301 246.6 198.301 247 198.301C260.9 198.301 272.2 187 272.2 173C272.3 159.7 261.8 148.6 248.4 147.9Z" fill="white"/>
<path d="M135.1 133.1C139.4 141.6 148.1 147 157.7 147C171.6 147 182.9 135.7 182.9 121.7C182.9 117.8 182 113.9 180.2 110.3C173.9 97.8 158.7 92.8 146.3 99.1C133.8 105.5 128.8 120.7 135.1 133.1Z" fill="white"/>
<path d="M333 100.8C338.1 98.1997 340.1 91.8997 337.5 86.7997C334.9 81.6997 328.6 79.6997 323.5 82.2997C318.4 84.8997 316.4 91.0997 318.9 96.1997C321.6 101.3 327.8 103.4 333 100.8Z" fill="white"/>
<path d="M269 108.8C261.7 112.5 258.7 121.4 262.4 128.7C266.1 136 275 139 282.3 135.3C289.6 131.6 292.6 122.7 288.9 115.4C285.2 108.1 276.3 105.2 269 108.8Z" fill="white"/>
<path d="M186.5 20.8001C192.2 21.1001 197.1 16.7001 197.5 11.0001C197.9 5.30014 193.4 0.400138 187.7 0.000138364C182 -0.299862 177.1 4.00014 176.7 9.70014C176.4 15.5001 180.8 20.4001 186.5 20.8001Z" fill="white"/>
<path d="M186.399 86.1005C194.599 86.6005 201.599 80.3005 201.999 72.1005C202.499 63.9005 196.199 56.9005 187.999 56.5005C179.799 56.0005 172.799 62.3005 172.399 70.5005C171.999 78.7005 178.199 85.7005 186.399 86.1005Z" fill="white"/>
<path d="M106 237.7C113.3 234 116.3 225.1 112.6 217.8C108.9 210.5 99.9998 207.5 92.6998 211.2C85.3998 214.9 82.3999 223.8 86.0999 231.1C89.7999 238.4 98.6999 241.4 106 237.7Z" fill="white"/>
<path d="M195.999 107.8C188.399 119.5 191.599 135.1 203.299 142.7C214.999 150.3 230.599 147.1 238.199 135.4C245.799 123.7 242.599 108.1 230.899 100.5C226.799 97.8004 221.999 96.4004 217.099 96.4004C208.599 96.4004 200.699 100.7 195.999 107.8Z" fill="white"/>
<path d="M239.899 213.401C233.599 200.901 218.399 195.901 205.999 202.201C193.499 208.501 188.499 223.701 194.799 236.101C201.099 248.601 216.299 253.601 228.699 247.301C241.099 241.101 246.199 226.101 239.999 213.601C239.999 213.501 239.999 213.501 239.899 213.401Z" fill="white"/>
<path d="M283.999 211.6C277.099 207.1 267.899 209 263.499 215.9C258.999 222.8 260.899 232 267.799 236.4C274.699 240.9 283.899 239 288.299 232.1C292.799 225.3 290.899 216.1 283.999 211.6Z" fill="white"/>
<path d="M332.4 173.7C332.8 166.7 327.5 160.8 320.5 160.4C313.5 160 307.6 165.3 307.2 172.3C306.8 179.3 312.1 185.2 319.1 185.6C326 186 332 180.6 332.4 173.7Z" fill="white"/>
<path d="M367.3 164.701C362.8 164.401 358.9 167.901 358.7 172.401C358.5 176.901 361.9 180.801 366.4 181.001C370.9 181.301 374.7 177.801 375 173.301C375.2 168.801 371.8 165.001 367.3 164.701Z" fill="white"/>
<path d="M334.4 245.7C329.6 242.6 323.2 243.9 320 248.7C316.9 253.5 318.2 259.9 323 263.1C327.8 266.2 334.2 264.9 337.4 260.1C340.6 255.3 339.2 248.8 334.4 245.7Z" fill="white"/>
<path d="M102.599 321.9C98.7994 319.4 93.7995 320.5 91.2995 324.2C88.7995 328 89.8994 333 93.5994 335.5C97.3994 338 102.399 336.9 104.899 333.2C107.499 329.5 106.399 324.4 102.599 321.9Z" fill="white"/>
<path d="M273.8 321.1C269.8 323.1 268.2 328.1 270.2 332.1C272.2 336.1 277.2 337.7 281.2 335.7C285.2 333.7 286.8 328.8 284.8 324.8C282.8 320.7 277.9 319 273.8 321.1Z" fill="white"/>
<path d="M179 238.7C186.6 227 183.4 211.4 171.7 203.7C160 196.1 144.4 199.3 136.7 211C129 222.7 132.3 238.3 144 246C148.1 248.7 152.9 250.1 157.8 250.1C166.4 250.2 174.3 245.9 179 238.7Z" fill="white"/>
<path d="M128.5 277.4C122.7 273.6 114.8 275.2 111 281C107.2 286.8 108.8 294.7 114.6 298.5C120.4 302.3 128.3 300.7 132.1 294.9C136 289.1 134.4 281.2 128.5 277.4Z" fill="white"/>
<path d="M187.4 325.7C181.7 325.4 176.8 329.8 176.4 335.5C176 341.2 180.5 346.1 186.2 346.5C191.9 346.8 196.8 342.5 197.2 336.8C197.5 331 193.1 326.1 187.4 325.7Z" fill="white"/>
<path d="M187.5 260.4C179.3 259.9 172.3 266.2 171.9 274.4C171.4 282.6 177.7 289.6 185.9 290C194.1 290.4 201.1 284.2 201.5 276C202 267.9 195.7 260.8 187.5 260.4Z" fill="white"/>
<path d="M248.2 276.4C242 279.6 239.5 287.2 242.7 293.4C245.9 299.6 253.5 302.1 259.7 298.9C265.9 295.8 268.4 288.2 265.3 282C262.1 275.8 254.5 273.2 248.2 276.4Z" fill="white"/>
</g>
<defs>
<clipPath id="clip0_294_2">
<rect width="375" height="346.5" fill="white"/>
</clipPath>
</defs>
</svg>
